<?xml version="1.0" encoding="utf-8"?>
<!-- Generator: Adobe Illustrator 16.0.0, SVG Export Plug-In . SVG Version: 6.00 Build 0)  -->
<!DOCTYPE svg PUBLIC "-//W3C//DTD SVG 1.1//EN" "http://www.w3.org/Graphics/SVG/1.1/DTD/svg11.dtd">
<svg version="1.1" xmlns="http://www.w3.org/2000/svg" xmlns:xlink="http://www.w3.org/1999/xlink">
  <g id="image">
	<path d="M23.107,11.104h-0.039c-0.637-0.012-1.223-0.281-1.657-0.707c-0.42-0.42-0.688-1.016-0.696-1.665v-0.02V8.689v-2.47
		c0-0.834-0.337-1.594-0.885-2.129c-0.548-0.556-1.3-0.893-2.129-0.893c-0.498,0-0.906,0.407-0.906,0.898
		c0,0.492,0.408,0.901,0.906,0.901c0.33,0,0.636,0.14,0.855,0.355l0.005-0.005v0.005c0.223,0.218,0.363,0.525,0.363,0.867v2.47
		v0.024v0.02c0,1.148,0.473,2.182,1.226,2.934c0.114,0.12,0.228,0.229,0.369,0.343c-0.141,0.091-0.254,0.197-0.369,0.32
		c-0.753,0.753-1.226,1.786-1.226,2.934v0.024v0.019v2.475c0,0.337-0.14,0.631-0.368,0.867l-0.026,0.031
		c-0.219,0.193-0.513,0.324-0.829,0.324c-0.498,0-0.906,0.403-0.906,0.901c0,0.483,0.408,0.898,0.906,0.898
		c0.802,0,1.53-0.319,2.077-0.836l0.052-0.05c0.547-0.537,0.885-1.301,0.885-2.135v-2.475v-0.019v-0.024
		c0.008-0.652,0.276-1.239,0.696-1.665c0.434-0.429,1.02-0.696,1.657-0.709h0.039c0.49,0,0.893-0.394,0.893-0.88
		C24,11.505,23.597,11.104,23.107,11.104z"/>
	<path d="M8.492,11.104c-0.495,0-0.893,0.401-0.893,0.905c0,0.486,0.397,0.88,0.893,0.88c0.499,0,0.9-0.394,0.9-0.88
		C9.393,11.505,8.991,11.104,8.492,11.104z"/>
	<path d="M5.081,8.732v-0.02V8.689v-2.47c0-0.342,0.14-0.649,0.363-0.867c0.219-0.215,0.525-0.355,0.863-0.355
		c0.49,0,0.893-0.409,0.893-0.901c0-0.491-0.403-0.898-0.893-0.898c-0.823,0-1.589,0.337-2.129,0.893
		C3.635,4.625,3.289,5.385,3.289,6.219v2.47v0.024v0.02c-0.013,0.649-0.28,1.244-0.701,1.665c-0.434,0.425-1.02,0.695-1.657,0.707
		H0.893C0.408,11.104,0,11.505,0,12.009c0,0.486,0.408,0.88,0.893,0.88h0.039c0.637,0.014,1.223,0.281,1.657,0.709
		c0.42,0.425,0.688,1.012,0.701,1.665v0.024v0.019v2.475c0,0.834,0.346,1.599,0.889,2.135l0.044,0.05
		c0.547,0.517,1.288,0.836,2.085,0.836c0.49,0,0.893-0.416,0.893-0.898c0-0.499-0.403-0.901-0.893-0.901
		c-0.32,0-0.613-0.131-0.823-0.324l-0.04-0.031c-0.223-0.236-0.363-0.53-0.363-0.867v-2.475v-0.019v-0.024
		c-0.004-1.148-0.478-2.181-1.222-2.934c-0.109-0.123-0.236-0.229-0.363-0.32c0.127-0.114,0.254-0.223,0.363-0.343
		C4.603,10.914,5.076,9.88,5.081,8.732z"/>
	<path d="M15.508,11.104c-0.491,0-0.893,0.401-0.893,0.905c0,0.486,0.402,0.88,0.893,0.88c0.495,0,0.898-0.394,0.898-0.88
		C16.406,11.505,16.003,11.104,15.508,11.104z"/>
	<path d="M12,11.104c-0.498,0-0.893,0.401-0.893,0.905c0,0.486,0.395,0.88,0.893,0.88s0.898-0.394,0.898-0.88
		C12.898,11.505,12.498,11.104,12,11.104z"/>
  </g>
</svg>
