<?xml version="1.0" encoding="utf-8"?>
<!-- Generator: Adobe Illustrator 16.0.0, SVG Export Plug-In . SVG Version: 6.00 Build 0)  -->
<!DOCTYPE svg PUBLIC "-//W3C//DTD SVG 1.1//EN" "http://www.w3.org/Graphics/SVG/1.1/DTD/svg11.dtd">
<svg version="1.1" id="Layer_1" xmlns="http://www.w3.org/2000/svg" xmlns:xlink="http://www.w3.org/1999/xlink" x="0px" y="0px"
	 width="24px" height="24px" viewBox="0 0 24 24" enable-background="new 0 0 24 24" xml:space="preserve">
<path d="M12.625,2.709c-0.426,0.126-1.378,0.551-2.129,0.977C8.767,4.664,7.564,4.889,6.889,4.388
	C6.462,4.038,6.438,3.963,6.764,3.737c0.2-0.15,0.801-0.227,1.303-0.201c0.526,0.024,0.952-0.05,0.952-0.176
	c0.024-0.451-2.406-0.451-2.856,0C5.234,4.313,6.136,5.265,8.116,5.44c1.152,0.101,1.628-0.024,3.357-0.801
	c2.255-1.027,3.959-1.353,4.786-0.928c0.626,0.351,0.702,0.902,0.125,1.128c-0.727,0.275-2.029,0.15-2.356-0.2
	c-0.325-0.425-1.001-0.25-1.001,0.25c0,1.027,3.808,1.177,4.786,0.175C19.39,3.511,15.907,1.933,12.625,2.709z M1.373,4.364
	c-2.055,1.102-0.075,2.605,4.409,3.357c5.687,0.952,14.631,0.25,17.036-1.328c0.778-0.5,0.828-1.528,0.127-1.904
	c-0.427-0.226-0.501-0.201-0.501,0.226c0,1.378-3.984,2.279-10.172,2.279c-6.814,0-10.723-0.977-10.222-2.58
	C2.2,3.913,2.2,3.913,1.373,4.364z M1.384,8.171c0.1,0.376,0.326,1.202,0.5,1.805c0.327,1.077,0.301,1.102-0.55,1.979
	c-1.929,2.005-1.754,4.76,0.451,6.39c0.751,0.551,2.806,0.676,3.283,0.2c0.2-0.2,0.124-0.276-0.276-0.276
	c-0.651,0-2.18-1.303-2.706-2.279c-0.5-1.002-0.451-2.556,0.125-3.257l0.476-0.601l0.25,0.626c0.15,0.351,0.901,1.604,1.705,2.756
	c0.801,1.177,1.628,2.631,1.854,3.257c0.376,0.978,0.626,1.228,1.879,1.879c1.228,0.601,1.829,0.751,3.733,0.827
	c3.708,0.176,6.389-0.926,6.791-2.73c0.1-0.427,0.876-1.805,1.728-3.057c1.603-2.379,2.33-3.833,3.007-6.164
	c0.601-2.054,0.577-2.079-0.927-1.402c-2.254,1.027-5.863,1.453-11.174,1.304C6.095,9.277,4.09,8.9,1.409,7.548
	c-0.1-0.05-0.125,0.225-0.024,0.627L1.384,8.171z"/>
</svg>
