<?xml version="1.0" encoding="utf-8"?>
<!-- Generator: Adobe Illustrator 16.0.0, SVG Export Plug-In . SVG Version: 6.00 Build 0)  -->
<!DOCTYPE svg PUBLIC "-//W3C//DTD SVG 1.1//EN" "http://www.w3.org/Graphics/SVG/1.1/DTD/svg11.dtd">
<svg version="1.1" id="Layer_1" xmlns="http://www.w3.org/2000/svg" xmlns:xlink="http://www.w3.org/1999/xlink" x="0px" y="0px"
	 width="24px" height="24px" viewBox="0 0 24 24" enable-background="new 0 0 24 24" xml:space="preserve">
<path d="M12.017,16.473 M1.419,0l1.926,21.602L11.987,24l8.666-2.402L22.581,0H1.419z M18.58,4.94l-0.652,7.301l0,0l-0.45,5.037
	l-0.04,0.448l-5.434,1.507l-5.427-1.507l-0.371-4.16h2.659l0.189,2.113l2.953,0.796l0.007-0.002h0.002l2.946-0.795l0.309-3.436
	H9.088l-0.053-0.595l-0.121-1.344l-0.063-0.71h6.655l0.243-2.712H5.611L5.558,6.285L5.437,4.941L5.374,4.23h13.27L18.58,4.94
	L18.58,4.94z"/>
</svg>
