<?xml version="1.0" encoding="utf-8"?>
<!-- Generator: Adobe Illustrator 16.0.0, SVG Export Plug-In . SVG Version: 6.00 Build 0)  -->
<!DOCTYPE svg PUBLIC "-//W3C//DTD SVG 1.1//EN" "http://www.w3.org/Graphics/SVG/1.1/DTD/svg11.dtd">
<svg version="1.1" id="Layer_1" xmlns="http://www.w3.org/2000/svg" xmlns:xlink="http://www.w3.org/1999/xlink" x="0px" y="0px"
	 width="24px" height="24px" viewBox="0 0 24 24" enable-background="new 0 0 24 24" xml:space="preserve">
<g id="image">
	<path d="M11.241,15.979c-0.325,0.132-0.72,0.237-1.184,0.317s-0.94,0.12-1.429,0.122c-1.389-0.014-2.465-0.41-3.228-1.185
		c-0.764-0.775-1.15-1.843-1.161-3.205c0.029-1.495,0.451-2.61,1.266-3.347s1.849-1.104,3.103-1.103
		c0.562,0.005,1.061,0.056,1.498,0.152c0.437,0.097,0.808,0.213,1.114,0.347l0.653-2.496C11.593,5.435,11.161,5.3,10.578,5.18
		c-0.582-0.12-1.28-0.184-2.092-0.19C6.353,5.004,4.584,5.633,3.182,6.878S1.052,9.9,1,12.208c0.003,1.959,0.605,3.572,1.809,4.837
		c1.204,1.266,2.994,1.92,5.371,1.965c0.835-0.008,1.559-0.074,2.169-0.196c0.61-0.123,1.058-0.255,1.342-0.396L11.241,15.979z"/>
	<path d="M17.061,13.338l0.326-2.475h1.857l-0.306,2.475H17.061z M16.244,18.823l0.51-3.673h1.857l-0.53,3.673h1.836l0.511-3.673
		h2.001v-1.812h-1.674l0.306-2.475H23V9.052h-1.634l0.511-3.469h-1.816L19.55,9.052h-1.878l0.511-3.469h-1.796l-0.531,3.469h-2
		v1.812h1.715l-0.327,2.475h-1.979v1.812h1.674l-0.531,3.673H16.244z"/>
</g>
</svg>
