<?xml version="1.0" encoding="utf-8"?>
<!-- Generator: Adobe Illustrator 16.0.0, SVG Export Plug-In . SVG Version: 6.00 Build 0)  -->
<!DOCTYPE svg PUBLIC "-//W3C//DTD SVG 1.1//EN" "http://www.w3.org/Graphics/SVG/1.1/DTD/svg11.dtd">
<svg version="1.1" id="Layer_1" xmlns="http://www.w3.org/2000/svg" xmlns:xlink="http://www.w3.org/1999/xlink" x="0px" y="0px"
	 width="24px" height="24px" viewBox="0 0 24 24" enable-background="new 0 0 24 24" xml:space="preserve">
<path d="M19.027,6.949c-0.194,0.17-0.2,0.249-0.115,1.231c0.05,0.581,0.006,0.742-0.193,0.742c-0.302,0-0.985,0.489-1.068,0.773
	c-0.06,0.187,0.085,0.616,0.241,0.719c0.072,0.049,0.29,0.103,0.477,0.121c0.254,0.025,0.356,0.066,0.404,0.157
	c0.073,0.144,0.019,1.056-0.107,1.798c-0.085,0.465-0.085,0.567,0,1.014c0.054,0.277,0.096,0.61,0.096,0.742
	c0,0.133,0.024,0.29,0.06,0.351c0.03,0.061,0.073,0.351,0.085,0.646c0.037,0.748,0.126,1.032,0.422,1.285
	c0.382,0.333,0.471,0.356,1.202,0.362c0.375,0,0.741,0.007,0.826,0.007c0.61,0.006,1.389-0.115,1.431-0.224
	c0.019-0.042,0.211-0.229,0.429-0.416c0.562-0.476,0.711-0.712,0.772-1.268c0.049-0.398-0.072-1.068-0.223-1.261
	c-0.06-0.079-0.169-0.271-0.236-0.423c-0.084-0.205-0.149-0.277-0.247-0.277c-0.066,0-0.168-0.054-0.223-0.121
	c-0.103-0.12-0.109-0.12-0.308-0.012c-0.114,0.062-0.241,0.164-0.271,0.229c-0.037,0.06-0.114,0.187-0.169,0.277
	c-0.06,0.085-0.109,0.23-0.109,0.315s-0.048,0.283-0.114,0.439c-0.06,0.158-0.126,0.395-0.151,0.515
	c-0.054,0.295-0.174,0.41-0.446,0.41c-0.326,0-0.374-0.054-0.369-0.398c0.019-1.196,0-1.672-0.09-1.974
	c-0.163-0.566-0.024-1.798,0.218-1.949c0.042-0.029,0.519-0.048,1.05-0.054c0.888,0,0.989-0.012,1.11-0.121
	c0.115-0.103,0.126-0.163,0.097-0.393c-0.018-0.151-0.06-0.452-0.09-0.67c-0.024-0.223-0.072-0.435-0.096-0.471
	C23.291,9,23.048,8.987,22.391,9.013C21.908,9.03,21.45,9.06,21.377,9.084c-0.182,0.048-0.362-0.283-0.266-0.501
	c0.037-0.079,0.066-0.248,0.066-0.381c0-0.126,0.03-0.254,0.061-0.271c0.09-0.055,0.072-0.415-0.03-0.548
	c-0.049-0.062-0.09-0.163-0.09-0.218c0-0.151-0.108-0.194-0.633-0.248c-1.274-0.126-1.268-0.126-1.455,0.036L19.027,6.949z
	 M14.718,9.105c-0.085,0.024-0.253,0.048-0.374,0.054c-0.284,0.007-1.454,0.422-1.557,0.555c-0.019,0.018-0.085,0.056-0.151,0.079
	c-0.146,0.042-1.008,0.851-1.141,1.067c-0.091,0.145-0.145,0.422-0.278,1.382c-0.037,0.248-0.091,0.531-0.122,0.629
	c-0.15,0.452,0.012,1.695,0.265,1.961c0.079,0.084,0.176,0.218,0.211,0.29c0.073,0.14,0.067,0.14-0.411,0.14h-0.477l-0.006-0.72
	c0-0.398-0.029-0.79-0.066-0.875c-0.036-0.103-0.036-0.319,0.012-0.651c0.085-0.646,0.067-1.375-0.042-1.648
	c-0.048-0.113-0.09-0.295-0.09-0.404c0-0.41-0.387-1.176-0.604-1.2c-0.049-0.006-0.115-0.018-0.15-0.023
	C9.708,9.728,9.63,9.722,9.574,9.714c-0.054,0-0.223-0.115-0.373-0.24C8.82,9.147,8.602,9.081,8.126,9.166
	c-0.622,0.107-0.99,0.235-1.165,0.392C6.876,9.643,6.756,9.709,6.702,9.709c-0.139,0-0.187,0.042-0.458,0.373
	c-0.126,0.163-0.271,0.29-0.319,0.29c-0.132,0-0.259-0.157-0.259-0.319c0-0.078-0.06-0.192-0.126-0.26
	C5.425,9.69,5.303,9.678,4.585,9.672C4.133,9.665,3.656,9.643,3.523,9.618c-0.538-0.091-0.792,0.236-0.718,0.923
	c0.018,0.224,0.067,0.47,0.096,0.549c0.048,0.139,0.067,0.146,0.52,0.108l0.47-0.036l0.079,0.182
	c0.079,0.182,0.073,0.32-0.047,0.839c-0.079,0.344-0.079,1.443,0,1.841c0.176,0.881,0.182,1.021,0.072,1.099
	C3.94,15.17,3.716,15.2,3.482,15.2c-0.369,0-0.417,0.012-0.508,0.15c-0.108,0.17-0.259,0.796-0.266,1.099
	c0,0.164,0.037,0.205,0.272,0.319c0.254,0.122,0.567,0.14,1.389,0.067c0.277-0.023,0.862,0.025,0.929,0.079
	c0.104,0.079,1.323,0.062,1.545-0.024c0.259-0.097,0.394-0.283,0.394-0.536c0-0.133-0.031-0.26-0.061-0.279
	c-0.036-0.018-0.061-0.204-0.061-0.416c0-0.471-0.078-0.584-0.439-0.622c-0.248-0.029-0.284-0.054-0.284-0.169
	c0-0.078-0.035-0.157-0.073-0.169c-0.06-0.024-0.06-0.048-0.006-0.085c0.133-0.096,0.151-0.392,0.079-1.256
	c-0.073-0.784-0.073-0.882,0.019-1.021c0.06-0.083,0.103-0.259,0.103-0.386c0-0.139,0.037-0.271,0.09-0.315
	c0.048-0.041,0.09-0.107,0.09-0.148c0-0.23,0.881-0.26,1.297-0.044c0.104,0.05,0.224,0.108,0.271,0.133
	c0.05,0.024,0.098,0.115,0.109,0.2S8.431,11.964,8.479,12c0.095,0.085,0.12,0.862,0.029,1.104c-0.066,0.169-0.09,1.183-0.036,1.521
	c0.055,0.344-0.103,0.483-0.561,0.483c-0.519,0-0.537,0.078-0.319,1.26c0.096,0.527,0.121,0.545,0.73,0.489
	c0.61-0.056,0.392-0.054,2.052,0l1.358,0.049l0.139-0.193c0.109-0.15,0.132-0.253,0.121-0.506l-0.019-0.319l0.634,0.423
	c0.772,0.512,1.063,0.591,2.215,0.578c0.652-0.006,0.856-0.029,1.177-0.139c0.205-0.079,0.417-0.164,0.465-0.192
	c0.049-0.025,0.229-0.085,0.404-0.127c0.447-0.103,0.779-0.386,0.93-0.791c0.066-0.182,0.175-0.435,0.24-0.561
	c0.067-0.133,0.123-0.279,0.123-0.327c0-0.126-0.296-0.458-0.417-0.458c-0.054,0-0.199-0.055-0.325-0.121
	c-0.236-0.126-0.412-0.12-0.585,0.029c-0.05,0.043-0.188,0.091-0.309,0.116c-0.121,0.017-0.272,0.095-0.332,0.161
	c-0.066,0.073-0.218,0.169-0.344,0.218c-0.12,0.049-0.278,0.168-0.344,0.26c-0.09,0.12-0.205,0.181-0.471,0.24
	c-0.2,0.042-0.423,0.054-0.501,0.03c-0.182-0.056-0.718-0.398-0.718-0.453c0-0.024-0.115-0.163-0.248-0.301
	c-0.235-0.24-0.247-0.271-0.211-0.531c0.05-0.38,0.115-0.434,0.502-0.434c0.181,0,0.41-0.043,0.512-0.097
	c0.273-0.146,1.202-0.133,1.426,0.012c0.133,0.09,0.295,0.108,0.856,0.108c0.731,0.006,1.069-0.062,1.322-0.254
	c0.158-0.115,0.158-0.133,0.158-0.863c0-0.809-0.085-1.226-0.302-1.532c-0.072-0.104-0.181-0.284-0.241-0.411
	c-0.061-0.133-0.15-0.249-0.206-0.272c-0.054-0.018-0.199-0.145-0.319-0.283c-0.156-0.183-0.289-0.266-0.439-0.29
	c-0.115-0.018-0.38-0.114-0.584-0.218c-0.786-0.373-0.966-0.416-1.317-0.307L14.718,9.105z M15.092,10.663
	c0.205,0.139,0.893,0.91,0.893,1.007c0,0.133-0.157,0.211-0.58,0.301c-0.554,0.121-1.351,0.121-1.508,0
	c-0.06-0.049-0.157-0.09-0.211-0.09c-0.096,0-0.175-0.115-0.175-0.24c0-0.03,0.09-0.15,0.2-0.266
	c0.103-0.115,0.266-0.308,0.354-0.416C14.367,10.585,14.783,10.464,15.092,10.663L15.092,10.663z M0.686,14.923
	c-0.235,0.108-0.482,0.374-0.598,0.651c-0.367,0.882,0.471,1.811,1.402,1.558c1.001-0.266,1.159-1.72,0.24-2.167
	C1.422,14.819,0.963,14.802,0.686,14.923L0.686,14.923z"/>
</svg>
