<?xml version="1.0" encoding="utf-8"?>
<!-- Generator: Adobe Illustrator 16.0.0, SVG Export Plug-In . SVG Version: 6.00 Build 0)  -->
<!DOCTYPE svg PUBLIC "-//W3C//DTD SVG 1.1//EN" "http://www.w3.org/Graphics/SVG/1.1/DTD/svg11.dtd">
<svg version="1.1" id="Layer_1" xmlns="http://www.w3.org/2000/svg" xmlns:xlink="http://www.w3.org/1999/xlink" x="0px" y="0px"
	 width="24px" height="24px" viewBox="0 0 24 24" enable-background="new 0 0 24 24" xml:space="preserve">
	 <g id="image">
		<path d="M1.421,0l1.925,21.602L11.988,24l8.665-2.402L22.58,0.002H1.42L1.421,0z M9.404,5.595L9.021,9.751l9.054,0.002l-0.065,0.711
			l-0.623,6.974l-0.04,0.448l-5.433,1.507l-5.426-1.507l-0.371-4.16h2.659l0.188,2.114l2.953,0.795l2.955-0.797l0.307-3.436
			L6.127,12.4l0.064-0.711l0.623-6.974l0.196-1.953h10.566l0.123,1.496l0.377,4.168h-2.659L15.17,5.692l-2.704-0.163h-0.482V5.525
			L9.404,5.595L9.404,5.595z"/>
		</g>
</svg>
